<svg aria-roledescription="er" role="graphics-document document" viewBox="0 0 217.92236328125 606" style="max-width: 217.922px; background-color: white;" xmlns:xlink="http://www.w3.org/1999/xlink" xmlns="http://www.w3.org/2000/svg" width="100%" id="my-svg"><style>#my-svg{font-family:"trebuchet ms",verdana,arial,sans-serif;font-size:16px;fill:#000000;}#my-svg .error-icon{fill:#552222;}#my-svg .error-text{fill:#552222;stroke:#552222;}#my-svg .edge-thickness-normal{stroke-width:1px;}#my-svg .edge-thickness-thick{stroke-width:3.5px;}#my-svg .edge-pattern-solid{stroke-dasharray:0;}#my-svg .edge-thickness-invisible{stroke-width:0;fill:none;}#my-svg .edge-pattern-dashed{stroke-dasharray:3;}#my-svg .edge-pattern-dotted{stroke-dasharray:2;}#my-svg .marker{fill:#000000;stroke:#000000;}#my-svg .marker.cross{stroke:#000000;}#my-svg svg{font-family:"trebuchet ms",verdana,arial,sans-serif;font-size:16px;}#my-svg p{margin:0;}#my-svg .entityBox{fill:#cde498;stroke:#13540c;}#my-svg .attributeBoxOdd{fill:#ffffff;stroke:#13540c;}#my-svg .attributeBoxEven{fill:#f2f2f2;stroke:#13540c;}#my-svg .relationshipLabelBox{fill:hsl(78.1578947368, 58.4615384615%, 84.5098039216%);opacity:0.7;background-color:hsl(78.1578947368, 58.4615384615%, 84.5098039216%);}#my-svg .relationshipLabelBox rect{opacity:0.5;}#my-svg .relationshipLine{stroke:#000000;}#my-svg .entityTitleText{text-anchor:middle;font-size:18px;fill:#000000;}#my-svg #MD_PARENT_START{fill:#f5f5f5!important;stroke:#000000!important;stroke-width:1;}#my-svg #MD_PARENT_END{fill:#f5f5f5!important;stroke:#000000!important;stroke-width:1;}#my-svg :root{--mermaid-font-family:"trebuchet ms",verdana,arial,sans-serif;}</style><g/><defs><marker orient="auto" markerHeight="240" markerWidth="190" refY="7" refX="0" id="MD_PARENT_START"><path d="M 18,7 L9,13 L1,7 L9,1 Z"/></marker></defs><defs><marker orient="auto" markerHeight="28" markerWidth="20" refY="7" refX="19" id="MD_PARENT_END"><path d="M 18,7 L9,13 L1,7 L9,1 Z"/></marker></defs><defs><marker orient="auto" markerHeight="18" markerWidth="18" refY="9" refX="0" id="ONLY_ONE_START"><path d="M9,0 L9,18 M15,0 L15,18" fill="none" stroke="gray"/></marker></defs><defs><marker orient="auto" markerHeight="18" markerWidth="18" refY="9" refX="18" id="ONLY_ONE_END"><path d="M3,0 L3,18 M9,0 L9,18" fill="none" stroke="gray"/></marker></defs><defs><marker orient="auto" markerHeight="18" markerWidth="30" refY="9" refX="0" id="ZERO_OR_ONE_START"><circle r="6" cy="9" cx="21" fill="white" stroke="gray"/><path d="M9,0 L9,18" fill="none" stroke="gray"/></marker></defs><defs><marker orient="auto" markerHeight="18" markerWidth="30" refY="9" refX="30" id="ZERO_OR_ONE_END"><circle r="6" cy="9" cx="9" fill="white" stroke="gray"/><path d="M21,0 L21,18" fill="none" stroke="gray"/></marker></defs><defs><marker orient="auto" markerHeight="36" markerWidth="45" refY="18" refX="18" id="ONE_OR_MORE_START"><path d="M0,18 Q 18,0 36,18 Q 18,36 0,18 M42,9 L42,27" fill="none" stroke="gray"/></marker></defs><defs><marker orient="auto" markerHeight="36" markerWidth="45" refY="18" refX="27" id="ONE_OR_MORE_END"><path d="M3,9 L3,27 M9,18 Q27,0 45,18 Q27,36 9,18" fill="none" stroke="gray"/></marker></defs><defs><marker orient="auto" markerHeight="36" markerWidth="57" refY="18" refX="18" id="ZERO_OR_MORE_START"><circle r="6" cy="18" cx="48" fill="white" stroke="gray"/><path d="M0,18 Q18,0 36,18 Q18,36 0,18" fill="none" stroke="gray"/></marker></defs><defs><marker orient="auto" markerHeight="36" markerWidth="57" refY="18" refX="39" id="ZERO_OR_MORE_END"><circle r="6" cy="18" cx="9" fill="white" stroke="gray"/><path d="M21,18 Q39,0 57,18 Q39,36 21,18" fill="none" stroke="gray"/></marker></defs><path style="stroke: gray; fill: none;" marker-start="url(#ZERO_OR_MORE_START)" marker-end="url(#ZERO_OR_MORE_END)" d="M72.622,286L70.346,294.333C68.069,302.667,63.515,319.333,64.016,336C64.517,352.667,70.072,369.333,72.85,377.667L75.628,386" class="er relationshipLine"/><path style="stroke: gray; fill: none;" marker-start="url(#ZERO_OR_ONE_START)" marker-end="url(#ONLY_ONE_END)" d="M142.295,386L145.072,377.667C147.85,369.333,153.406,352.667,153.907,336C154.407,319.333,149.854,302.667,147.577,294.333L145.3,286" class="er relationshipLine"/><g transform="translate(20,20 )" id="entity-user-dad033c9-7a45-5f6a-ab5a-b5def405b2a6"><rect height="266" width="177.92236328125" y="0" x="0" class="er entityBox"/><text style="dominant-baseline: middle; text-anchor: middle; font-size: 12px;" transform="translate(88.961181640625,12)" y="0" x="0" id="text-entity-user-dad033c9-7a45-5f6a-ab5a-b5def405b2a6" class="er entityLabel">user</text><rect height="22" width="54.095550537109375" y="24" x="0" class="er attributeBoxOdd"/><text style="dominant-baseline: middle; font-size: 10.2px;" transform="translate(5,35)" y="0" x="0" id="text-entity-user-dad033c9-7a45-5f6a-ab5a-b5def405b2a6-attr-1-type" class="er entityLabel">Int</text><rect height="22" width="99.81118774414062" y="24" x="54.095550537109375" class="er attributeBoxOdd"/><text style="dominant-baseline: middle; font-size: 10.2px;" transform="translate(59.095550537109375,35)" y="0" x="0" id="text-entity-user-dad033c9-7a45-5f6a-ab5a-b5def405b2a6-attr-1-name" class="er entityLabel">id</text><rect height="22" width="24.015625" y="24" x="153.90673828125" class="er attributeBoxOdd"/><text style="dominant-baseline: middle; font-size: 10.2px;" transform="translate(158.90673828125,35)" y="0" x="0" id="text-entity-user-dad033c9-7a45-5f6a-ab5a-b5def405b2a6-attr-1-comment" class="er entityLabel">🗝️</text><rect height="22" width="54.095550537109375" y="46" x="0" class="er attributeBoxEven"/><text style="dominant-baseline: middle; font-size: 10.2px;" transform="translate(5,57)" y="0" x="0" id="text-entity-user-dad033c9-7a45-5f6a-ab5a-b5def405b2a6-attr-2-type" class="er entityLabel">String</text><rect height="22" width="99.81118774414062" y="46" x="54.095550537109375" class="er attributeBoxEven"/><text style="dominant-baseline: middle; font-size: 10.2px;" transform="translate(59.095550537109375,57)" y="0" x="0" id="text-entity-user-dad033c9-7a45-5f6a-ab5a-b5def405b2a6-attr-2-name" class="er entityLabel">email</text><rect height="22" width="24.015625" y="46" x="153.90673828125" class="er attributeBoxEven"/><text style="dominant-baseline: middle; font-size: 10.2px;" transform="translate(158.90673828125,57)" y="0" x="0" id="text-entity-user-dad033c9-7a45-5f6a-ab5a-b5def405b2a6-attr-2-comment" class="er entityLabel"/><rect height="22" width="54.095550537109375" y="68" x="0" class="er attributeBoxOdd"/><text style="dominant-baseline: middle; font-size: 10.2px;" transform="translate(5,79)" y="0" x="0" id="text-entity-user-dad033c9-7a45-5f6a-ab5a-b5def405b2a6-attr-3-type" class="er entityLabel">String</text><rect height="22" width="99.81118774414062" y="68" x="54.095550537109375" class="er attributeBoxOdd"/><text style="dominant-baseline: middle; font-size: 10.2px;" transform="translate(59.095550537109375,79)" y="0" x="0" id="text-entity-user-dad033c9-7a45-5f6a-ab5a-b5def405b2a6-attr-3-name" class="er entityLabel">username</text><rect height="22" width="24.015625" y="68" x="153.90673828125" class="er attributeBoxOdd"/><text style="dominant-baseline: middle; font-size: 10.2px;" transform="translate(158.90673828125,79)" y="0" x="0" id="text-entity-user-dad033c9-7a45-5f6a-ab5a-b5def405b2a6-attr-3-comment" class="er entityLabel"/><rect height="22" width="54.095550537109375" y="90" x="0" class="er attributeBoxEven"/><text style="dominant-baseline: middle; font-size: 10.2px;" transform="translate(5,101)" y="0" x="0" id="text-entity-user-dad033c9-7a45-5f6a-ab5a-b5def405b2a6-attr-4-type" class="er entityLabel">String</text><rect height="22" width="99.81118774414062" y="90" x="54.095550537109375" class="er attributeBoxEven"/><text style="dominant-baseline: middle; font-size: 10.2px;" transform="translate(59.095550537109375,101)" y="0" x="0" id="text-entity-user-dad033c9-7a45-5f6a-ab5a-b5def405b2a6-attr-4-name" class="er entityLabel">password</text><rect height="22" width="24.015625" y="90" x="153.90673828125" class="er attributeBoxEven"/><text style="dominant-baseline: middle; font-size: 10.2px;" transform="translate(158.90673828125,101)" y="0" x="0" id="text-entity-user-dad033c9-7a45-5f6a-ab5a-b5def405b2a6-attr-4-comment" class="er entityLabel"/><rect height="22" width="54.095550537109375" y="112" x="0" class="er attributeBoxOdd"/><text style="dominant-baseline: middle; font-size: 10.2px;" transform="translate(5,123)" y="0" x="0" id="text-entity-user-dad033c9-7a45-5f6a-ab5a-b5def405b2a6-attr-5-type" class="er entityLabel">Boolean</text><rect height="22" width="99.81118774414062" y="112" x="54.095550537109375" class="er attributeBoxOdd"/><text style="dominant-baseline: middle; font-size: 10.2px;" transform="translate(59.095550537109375,123)" y="0" x="0" id="text-entity-user-dad033c9-7a45-5f6a-ab5a-b5def405b2a6-attr-5-name" class="er entityLabel">is_email_confirmed</text><rect height="22" width="24.015625" y="112" x="153.90673828125" class="er attributeBoxOdd"/><text style="dominant-baseline: middle; font-size: 10.2px;" transform="translate(158.90673828125,123)" y="0" x="0" id="text-entity-user-dad033c9-7a45-5f6a-ab5a-b5def405b2a6-attr-5-comment" class="er entityLabel"/><rect height="22" width="54.095550537109375" y="134" x="0" class="er attributeBoxEven"/><text style="dominant-baseline: middle; font-size: 10.2px;" transform="translate(5,145)" y="0" x="0" id="text-entity-user-dad033c9-7a45-5f6a-ab5a-b5def405b2a6-attr-6-type" class="er entityLabel">Int</text><rect height="22" width="99.81118774414062" y="134" x="54.095550537109375" class="er attributeBoxEven"/><text style="dominant-baseline: middle; font-size: 10.2px;" transform="translate(59.095550537109375,145)" y="0" x="0" id="text-entity-user-dad033c9-7a45-5f6a-ab5a-b5def405b2a6-attr-6-name" class="er entityLabel">role</text><rect height="22" width="24.015625" y="134" x="153.90673828125" class="er attributeBoxEven"/><text style="dominant-baseline: middle; font-size: 10.2px;" transform="translate(158.90673828125,145)" y="0" x="0" id="text-entity-user-dad033c9-7a45-5f6a-ab5a-b5def405b2a6-attr-6-comment" class="er entityLabel"/><rect height="22" width="54.095550537109375" y="156" x="0" class="er attributeBoxOdd"/><text style="dominant-baseline: middle; font-size: 10.2px;" transform="translate(5,167)" y="0" x="0" id="text-entity-user-dad033c9-7a45-5f6a-ab5a-b5def405b2a6-attr-7-type" class="er entityLabel">Int</text><rect height="22" width="99.81118774414062" y="156" x="54.095550537109375" class="er attributeBoxOdd"/><text style="dominant-baseline: middle; font-size: 10.2px;" transform="translate(59.095550537109375,167)" y="0" x="0" id="text-entity-user-dad033c9-7a45-5f6a-ab5a-b5def405b2a6-attr-7-name" class="er entityLabel">state</text><rect height="22" width="24.015625" y="156" x="153.90673828125" class="er attributeBoxOdd"/><text style="dominant-baseline: middle; font-size: 10.2px;" transform="translate(158.90673828125,167)" y="0" x="0" id="text-entity-user-dad033c9-7a45-5f6a-ab5a-b5def405b2a6-attr-7-comment" class="er entityLabel"/><rect height="22" width="54.095550537109375" y="178" x="0" class="er attributeBoxEven"/><text style="dominant-baseline: middle; font-size: 10.2px;" transform="translate(5,189)" y="0" x="0" id="text-entity-user-dad033c9-7a45-5f6a-ab5a-b5def405b2a6-attr-8-type" class="er entityLabel">DateTime</text><rect height="22" width="99.81118774414062" y="178" x="54.095550537109375" class="er attributeBoxEven"/><text style="dominant-baseline: middle; font-size: 10.2px;" transform="translate(59.095550537109375,189)" y="0" x="0" id="text-entity-user-dad033c9-7a45-5f6a-ab5a-b5def405b2a6-attr-8-name" class="er entityLabel">created_at</text><rect height="22" width="24.015625" y="178" x="153.90673828125" class="er attributeBoxEven"/><text style="dominant-baseline: middle; font-size: 10.2px;" transform="translate(158.90673828125,189)" y="0" x="0" id="text-entity-user-dad033c9-7a45-5f6a-ab5a-b5def405b2a6-attr-8-comment" class="er entityLabel"/><rect height="22" width="54.095550537109375" y="200" x="0" class="er attributeBoxOdd"/><text style="dominant-baseline: middle; font-size: 10.2px;" transform="translate(5,211)" y="0" x="0" id="text-entity-user-dad033c9-7a45-5f6a-ab5a-b5def405b2a6-attr-9-type" class="er entityLabel">DateTime</text><rect height="22" width="99.81118774414062" y="200" x="54.095550537109375" class="er attributeBoxOdd"/><text style="dominant-baseline: middle; font-size: 10.2px;" transform="translate(59.095550537109375,211)" y="0" x="0" id="text-entity-user-dad033c9-7a45-5f6a-ab5a-b5def405b2a6-attr-9-name" class="er entityLabel">updated_at</text><rect height="22" width="24.015625" y="200" x="153.90673828125" class="er attributeBoxOdd"/><text style="dominant-baseline: middle; font-size: 10.2px;" transform="translate(158.90673828125,211)" y="0" x="0" id="text-entity-user-dad033c9-7a45-5f6a-ab5a-b5def405b2a6-attr-9-comment" class="er entityLabel"/><rect height="22" width="54.095550537109375" y="222" x="0" class="er attributeBoxEven"/><text style="dominant-baseline: middle; font-size: 10.2px;" transform="translate(5,233)" y="0" x="0" id="text-entity-user-dad033c9-7a45-5f6a-ab5a-b5def405b2a6-attr-10-type" class="er entityLabel">DateTime</text><rect height="22" width="99.81118774414062" y="222" x="54.095550537109375" class="er attributeBoxEven"/><text style="dominant-baseline: middle; font-size: 10.2px;" transform="translate(59.095550537109375,233)" y="0" x="0" id="text-entity-user-dad033c9-7a45-5f6a-ab5a-b5def405b2a6-attr-10-name" class="er entityLabel">deleted_at</text><rect height="22" width="24.015625" y="222" x="153.90673828125" class="er attributeBoxEven"/><text style="dominant-baseline: middle; font-size: 10.2px;" transform="translate(158.90673828125,233)" y="0" x="0" id="text-entity-user-dad033c9-7a45-5f6a-ab5a-b5def405b2a6-attr-10-comment" class="er entityLabel">❓</text><rect height="22" width="54.095550537109375" y="244" x="0" class="er attributeBoxOdd"/><text style="dominant-baseline: middle; font-size: 10.2px;" transform="translate(5,255)" y="0" x="0" id="text-entity-user-dad033c9-7a45-5f6a-ab5a-b5def405b2a6-attr-11-type" class="er entityLabel">DateTime</text><rect height="22" width="99.81118774414062" y="244" x="54.095550537109375" class="er attributeBoxOdd"/><text style="dominant-baseline: middle; font-size: 10.2px;" transform="translate(59.095550537109375,255)" y="0" x="0" id="text-entity-user-dad033c9-7a45-5f6a-ab5a-b5def405b2a6-attr-11-name" class="er entityLabel">last_login</text><rect height="22" width="24.015625" y="244" x="153.90673828125" class="er attributeBoxOdd"/><text style="dominant-baseline: middle; font-size: 10.2px;" transform="translate(158.90673828125,255)" y="0" x="0" id="text-entity-user-dad033c9-7a45-5f6a-ab5a-b5def405b2a6-attr-11-comment" class="er entityLabel">❓</text></g><g transform="translate(36.557533264160156,386 )" id="entity-profile-0cabb42c-764e-5046-9360-c108fb8f09c5"><rect height="200" width="144.8072967529297" y="0" x="0" class="er entityBox"/><text style="dominant-baseline: middle; text-anchor: middle; font-size: 12px;" transform="translate(72.40364837646484,12)" y="0" x="0" id="text-entity-profile-0cabb42c-764e-5046-9360-c108fb8f09c5" class="er entityLabel">profile</text><rect height="22" width="54.095550537109375" y="24" x="0" class="er attributeBoxOdd"/><text style="dominant-baseline: middle; font-size: 10.2px;" transform="translate(5,35)" y="0" x="0" id="text-entity-profile-0cabb42c-764e-5046-9360-c108fb8f09c5-attr-1-type" class="er entityLabel">Int</text><rect height="22" width="66.69612121582031" y="24" x="54.095550537109375" class="er attributeBoxOdd"/><text style="dominant-baseline: middle; font-size: 10.2px;" transform="translate(59.095550537109375,35)" y="0" x="0" id="text-entity-profile-0cabb42c-764e-5046-9360-c108fb8f09c5-attr-1-name" class="er entityLabel">id</text><rect height="22" width="24.015625" y="24" x="120.79167175292969" class="er attributeBoxOdd"/><text style="dominant-baseline: middle; font-size: 10.2px;" transform="translate(125.79167175292969,35)" y="0" x="0" id="text-entity-profile-0cabb42c-764e-5046-9360-c108fb8f09c5-attr-1-comment" class="er entityLabel">🗝️</text><rect height="22" width="54.095550537109375" y="46" x="0" class="er attributeBoxEven"/><text style="dominant-baseline: middle; font-size: 10.2px;" transform="translate(5,57)" y="0" x="0" id="text-entity-profile-0cabb42c-764e-5046-9360-c108fb8f09c5-attr-2-type" class="er entityLabel">Int</text><rect height="22" width="66.69612121582031" y="46" x="54.095550537109375" class="er attributeBoxEven"/><text style="dominant-baseline: middle; font-size: 10.2px;" transform="translate(59.095550537109375,57)" y="0" x="0" id="text-entity-profile-0cabb42c-764e-5046-9360-c108fb8f09c5-attr-2-name" class="er entityLabel">user_id</text><rect height="22" width="24.015625" y="46" x="120.79167175292969" class="er attributeBoxEven"/><text style="dominant-baseline: middle; font-size: 10.2px;" transform="translate(125.79167175292969,57)" y="0" x="0" id="text-entity-profile-0cabb42c-764e-5046-9360-c108fb8f09c5-attr-2-comment" class="er entityLabel"/><rect height="22" width="54.095550537109375" y="68" x="0" class="er attributeBoxOdd"/><text style="dominant-baseline: middle; font-size: 10.2px;" transform="translate(5,79)" y="0" x="0" id="text-entity-profile-0cabb42c-764e-5046-9360-c108fb8f09c5-attr-3-type" class="er entityLabel">Bytes</text><rect height="22" width="66.69612121582031" y="68" x="54.095550537109375" class="er attributeBoxOdd"/><text style="dominant-baseline: middle; font-size: 10.2px;" transform="translate(59.095550537109375,79)" y="0" x="0" id="text-entity-profile-0cabb42c-764e-5046-9360-c108fb8f09c5-attr-3-name" class="er entityLabel">buffer</text><rect height="22" width="24.015625" y="68" x="120.79167175292969" class="er attributeBoxOdd"/><text style="dominant-baseline: middle; font-size: 10.2px;" transform="translate(125.79167175292969,79)" y="0" x="0" id="text-entity-profile-0cabb42c-764e-5046-9360-c108fb8f09c5-attr-3-comment" class="er entityLabel"/><rect height="22" width="54.095550537109375" y="90" x="0" class="er attributeBoxEven"/><text style="dominant-baseline: middle; font-size: 10.2px;" transform="translate(5,101)" y="0" x="0" id="text-entity-profile-0cabb42c-764e-5046-9360-c108fb8f09c5-attr-4-type" class="er entityLabel">String</text><rect height="22" width="66.69612121582031" y="90" x="54.095550537109375" class="er attributeBoxEven"/><text style="dominant-baseline: middle; font-size: 10.2px;" transform="translate(59.095550537109375,101)" y="0" x="0" id="text-entity-profile-0cabb42c-764e-5046-9360-c108fb8f09c5-attr-4-name" class="er entityLabel">mime_type</text><rect height="22" width="24.015625" y="90" x="120.79167175292969" class="er attributeBoxEven"/><text style="dominant-baseline: middle; font-size: 10.2px;" transform="translate(125.79167175292969,101)" y="0" x="0" id="text-entity-profile-0cabb42c-764e-5046-9360-c108fb8f09c5-attr-4-comment" class="er entityLabel"/><rect height="22" width="54.095550537109375" y="112" x="0" class="er attributeBoxOdd"/><text style="dominant-baseline: middle; font-size: 10.2px;" transform="translate(5,123)" y="0" x="0" id="text-entity-profile-0cabb42c-764e-5046-9360-c108fb8f09c5-attr-5-type" class="er entityLabel">Int</text><rect height="22" width="66.69612121582031" y="112" x="54.095550537109375" class="er attributeBoxOdd"/><text style="dominant-baseline: middle; font-size: 10.2px;" transform="translate(59.095550537109375,123)" y="0" x="0" id="text-entity-profile-0cabb42c-764e-5046-9360-c108fb8f09c5-attr-5-name" class="er entityLabel">size</text><rect height="22" width="24.015625" y="112" x="120.79167175292969" class="er attributeBoxOdd"/><text style="dominant-baseline: middle; font-size: 10.2px;" transform="translate(125.79167175292969,123)" y="0" x="0" id="text-entity-profile-0cabb42c-764e-5046-9360-c108fb8f09c5-attr-5-comment" class="er entityLabel"/><rect height="22" width="54.095550537109375" y="134" x="0" class="er attributeBoxEven"/><text style="dominant-baseline: middle; font-size: 10.2px;" transform="translate(5,145)" y="0" x="0" id="text-entity-profile-0cabb42c-764e-5046-9360-c108fb8f09c5-attr-6-type" class="er entityLabel">String</text><rect height="22" width="66.69612121582031" y="134" x="54.095550537109375" class="er attributeBoxEven"/><text style="dominant-baseline: middle; font-size: 10.2px;" transform="translate(59.095550537109375,145)" y="0" x="0" id="text-entity-profile-0cabb42c-764e-5046-9360-c108fb8f09c5-attr-6-name" class="er entityLabel">origin_name</text><rect height="22" width="24.015625" y="134" x="120.79167175292969" class="er attributeBoxEven"/><text style="dominant-baseline: middle; font-size: 10.2px;" transform="translate(125.79167175292969,145)" y="0" x="0" id="text-entity-profile-0cabb42c-764e-5046-9360-c108fb8f09c5-attr-6-comment" class="er entityLabel"/><rect height="22" width="54.095550537109375" y="156" x="0" class="er attributeBoxOdd"/><text style="dominant-baseline: middle; font-size: 10.2px;" transform="translate(5,167)" y="0" x="0" id="text-entity-profile-0cabb42c-764e-5046-9360-c108fb8f09c5-attr-7-type" class="er entityLabel">String</text><rect height="22" width="66.69612121582031" y="156" x="54.095550537109375" class="er attributeBoxOdd"/><text style="dominant-baseline: middle; font-size: 10.2px;" transform="translate(59.095550537109375,167)" y="0" x="0" id="text-entity-profile-0cabb42c-764e-5046-9360-c108fb8f09c5-attr-7-name" class="er entityLabel">filename</text><rect height="22" width="24.015625" y="156" x="120.79167175292969" class="er attributeBoxOdd"/><text style="dominant-baseline: middle; font-size: 10.2px;" transform="translate(125.79167175292969,167)" y="0" x="0" id="text-entity-profile-0cabb42c-764e-5046-9360-c108fb8f09c5-attr-7-comment" class="er entityLabel"/><rect height="22" width="54.095550537109375" y="178" x="0" class="er attributeBoxEven"/><text style="dominant-baseline: middle; font-size: 10.2px;" transform="translate(5,189)" y="0" x="0" id="text-entity-profile-0cabb42c-764e-5046-9360-c108fb8f09c5-attr-8-type" class="er entityLabel">DateTime</text><rect height="22" width="66.69612121582031" y="178" x="54.095550537109375" class="er attributeBoxEven"/><text style="dominant-baseline: middle; font-size: 10.2px;" transform="translate(59.095550537109375,189)" y="0" x="0" id="text-entity-profile-0cabb42c-764e-5046-9360-c108fb8f09c5-attr-8-name" class="er entityLabel">created_at</text><rect height="22" width="24.015625" y="178" x="120.79167175292969" class="er attributeBoxEven"/><text style="dominant-baseline: middle; font-size: 10.2px;" transform="translate(125.79167175292969,189)" y="0" x="0" id="text-entity-profile-0cabb42c-764e-5046-9360-c108fb8f09c5-attr-8-comment" class="er entityLabel"/></g><rect height="14" width="36.185546875" y="329.29437255859375" x="45.932777404785156" class="er relationshipLabelBox"/><text style="text-anchor: middle; dominant-baseline: middle; font-size: 12px;" y="336.29437255859375" x="64.02555084228516" id="rel1" class="er relationshipLabel">profile</text><rect height="14" width="23.958984375" y="329.2942199707031" x="141.91796875" class="er relationshipLabelBox"/><text style="text-anchor: middle; dominant-baseline: middle; font-size: 12px;" y="336.2942199707031" x="153.8974609375" id="rel2" class="er relationshipLabel">user</text></svg>